<svg xmlns="http://www.w3.org/2000/svg" width="787" height="440" version="1.1">
    <path d="
      M 0 180
      L 0 260
      L 365 440
      L 365 360
      L 80 220
      L 365 80
      L 365 0" fill="#241f21"/>
      <path d="
      M 376 0
      L 376 90
      L 620 90
        C 620 90, 623.690 90.060, 631.995 92.050
        C 657.076 98.063, 679.384 116.078, 695.328 143.196
        C 709.105 166.627, 715.197 189.933, 715.013 218.500
        C 714.742 260.413, 701.233 294.841, 674.561 321.590
        C 661.073 335.117, 650.595 341.502, 634.134 346.223
        C 626.587 348.387, 620 350, 539.250 348.761
      L 620 350
      L 466 350
      L 466 150
      L 376 150
      L 376 440
      L 650 440
        C 650 440, 666.962 431.507, 691.484 421.277
        C 691.484 421.277, 710.684 407.979, 727.058 389.886
        C 746.595 368.298, 757.204 352.253, 768.575 327.101
        C 774.748 313.448, 782 292.913, 782 289.089
        C 782 287.610, 782.402 285.972, 782.893 285.450
        C 783.384 284.927, 784.509 281.261, 785.393 277.303
        C 786.755 271.203, 787 220, 786.997 218.803
        C 787 220 786.994, 167.500, 784.002, 155.320
        C 778.312 132.158, 770.165 111.994, 756.565 87.415
        C 750.104 75.738, 744.247 67.432, 735.823 58
        C 710.542 29.697, 650 0, 657.622 2.563
      L 650 0" fill="#41a8b9"/>
</svg>
